<?xml version="1.0" encoding="UTF-8" standalone="no"?>
<!-- Created with Inkscape (http://www.inkscape.org/) -->
<svg
   xmlns:dc="http://purl.org/dc/elements/1.1/"
   xmlns:cc="http://creativecommons.org/ns#"
   xmlns:rdf="http://www.w3.org/1999/02/22-rdf-syntax-ns#"
   xmlns:svg="http://www.w3.org/2000/svg"
   xmlns="http://www.w3.org/2000/svg"
   xmlns:sodipodi="http://sodipodi.sourceforge.net/DTD/sodipodi-0.dtd"
   xmlns:inkscape="http://www.inkscape.org/namespaces/inkscape"
   width="744.09448819"
   height="1052.3622047"
   id="svg2"
   sodipodi:version="0.32"
   inkscape:version="0.46"
   sodipodi:docname="P1-6.svg"
   inkscape:output_extension="org.inkscape.output.svg.inkscape">
  <defs
     id="defs4">
    <marker
       inkscape:stockid="Legs"
       orient="auto"
       refY="0.0"
       refX="0.0"
       id="Legs"
       style="overflow:visible">
      <g
         id="g6986"
         transform="scale(-0.7)">
        <g
           id="g6988"
           transform="matrix(0,-1.000000,-1.000000,0,20.70862,21.31391)">
          <path
             id="path6990"
             d="M 21.221250,20.675360 C 14.311099,25.396517 18.766725,27.282204 15.380179,34.118595"
             style="fill:none;fill-opacity:0.75000000;fill-rule:evenodd;stroke:#000000;stroke-width:1.0000000pt;marker-start:none;marker-end:none" />
          <path
             id="path6992"
             d="M 21.398110,20.548120 C 20.037601,28.895644 24.934182,29.318060 25.903151,34.373078"
             style="fill:none;fill-opacity:0.75000000;fill-rule:evenodd;stroke:#000000;stroke-width:1.0000000pt;marker-start:none;marker-end:none" />
        </g>
        <path
           id="path6994"
           d="M -14.090070,-6.7318716 L -15.012238,-2.6884886 L -11.049487,-3.9115586 L -14.090070,-6.7318716 z "
           style="fill:#030300;fill-rule:evenodd;stroke-width:1.0000000pt;marker-end:none" />
        <path
           id="path6996"
           d="M -15.215679,4.5567534 L -13.341552,8.2563664 L -11.074678,4.7835114 L -15.215679,4.5567534 z "
           style="fill:#030300;fill-rule:evenodd;stroke-width:1.0000000pt;marker-end:none" />
      </g>
    </marker>
    <marker
       inkscape:stockid="CurveIn"
       orient="auto"
       refY="0.0"
       refX="0.0"
       id="CurveIn"
       style="overflow:visible">
      <path
         id="path6971"
         d="M 4.6254930,-5.0456926 C 1.8654930,-5.0456926 -0.37450702,-2.8056926 -0.37450702,-0.045692580 C -0.37450702,2.7143074 1.8654930,4.9543074 4.6254930,4.9543074"
         style="fill-rule:evenodd;stroke:#000000;stroke-width:1.0pt;marker-start:none;marker-end:none;fill:none"
         transform="scale(0.6)" />
    </marker>
    <marker
       inkscape:stockid="Arrow1Mend"
       orient="auto"
       refY="0.0"
       refX="0.0"
       id="Arrow1Mend"
       style="overflow:visible;">
      <path
         id="path3171"
         d="M 0.0,0.0 L 5.0,-5.0 L -12.5,0.0 L 5.0,5.0 L 0.0,0.0 z "
         style="fill-rule:evenodd;stroke:#000000;stroke-width:1.0pt;marker-start:none;"
         transform="scale(0.4) rotate(180) translate(10,0)" />
    </marker>
    <marker
       inkscape:stockid="Arrow2Mend"
       orient="auto"
       refY="0.0"
       refX="0.0"
       id="Arrow2Mend"
       style="overflow:visible;">
      <path
         id="path3189"
         style="font-size:12.0;fill-rule:evenodd;stroke-width:0.62500000;stroke-linejoin:round;"
         d="M 8.7185878,4.0337352 L -2.2072895,0.016013256 L 8.7185884,-4.0017078 C 6.9730900,-1.6296469 6.9831476,1.6157441 8.7185878,4.0337352 z "
         transform="scale(0.6) rotate(180) translate(0,0)" />
    </marker>
    <marker
       inkscape:stockid="Arrow2Lend"
       orient="auto"
       refY="0.0"
       refX="0.0"
       id="Arrow2Lend"
       style="overflow:visible;">
      <path
         id="path3183"
         style="font-size:12.0;fill-rule:evenodd;stroke-width:0.62500000;stroke-linejoin:round;"
         d="M 8.7185878,4.0337352 L -2.2072895,0.016013256 L 8.7185884,-4.0017078 C 6.9730900,-1.6296469 6.9831476,1.6157441 8.7185878,4.0337352 z "
         transform="scale(1.1) rotate(180) translate(1,0)" />
    </marker>
    <inkscape:perspective
       sodipodi:type="inkscape:persp3d"
       inkscape:vp_x="0 : 526.18109 : 1"
       inkscape:vp_y="0 : 1000 : 0"
       inkscape:vp_z="744.09448 : 526.18109 : 1"
       inkscape:persp3d-origin="372.04724 : 350.78739 : 1"
       id="perspective10" />
  </defs>
  <sodipodi:namedview
     id="base"
     pagecolor="#ffffff"
     bordercolor="#666666"
     borderopacity="1.0"
     gridtolerance="10000"
     guidetolerance="10"
     objecttolerance="10"
     inkscape:pageopacity="0.0"
     inkscape:pageshadow="2"
     inkscape:zoom="2.8284271"
     inkscape:cx="244.40433"
     inkscape:cy="301.92504"
     inkscape:document-units="px"
     inkscape:current-layer="layer1"
     showgrid="true"
     inkscape:window-width="1420"
     inkscape:window-height="899"
     inkscape:window-x="16"
     inkscape:window-y="25">
    <inkscape:grid
       type="xygrid"
       id="grid2383" />
  </sodipodi:namedview>
  <metadata
     id="metadata7">
    <rdf:RDF>
      <cc:Work
         rdf:about="">
        <dc:format>image/svg+xml</dc:format>
        <dc:type
           rdf:resource="http://purl.org/dc/dcmitype/StillImage" />
      </cc:Work>
    </rdf:RDF>
  </metadata>
  <g
     inkscape:label="Layer 1"
     inkscape:groupmode="layer"
     id="layer1">
    <text
       xml:space="preserve"
       style="font-size:18px;font-style:italic;font-weight:normal;fill:#000000;fill-opacity:1;stroke:none;stroke-width:1px;stroke-linecap:butt;stroke-linejoin:miter;stroke-opacity:1;font-family:Bitstream Vera Sans"
       x="141.07143"
       y="617.00507"
       id="text6564"><tspan
         sodipodi:role="line"
         id="tspan6566"
         x="141.07143"
         y="617.00507" /></text>
    <text
       xml:space="preserve"
       style="font-size:18px;font-style:italic;font-weight:normal;fill:#000000;fill-opacity:1;stroke:none;stroke-width:1px;stroke-linecap:butt;stroke-linejoin:miter;stroke-opacity:1;font-family:Bitstream Vera Sans"
       x="288.92856"
       y="519.86218"
       id="text6614"><tspan
         sodipodi:role="line"
         id="tspan6616" /></text>
    <text
       xml:space="preserve"
       style="font-size:18px;font-style:italic;font-weight:normal;fill:#000000;fill-opacity:1;stroke:none;stroke-width:1px;stroke-linecap:butt;stroke-linejoin:miter;stroke-opacity:1;font-family:Bitstream Vera Sans"
       x="345.35715"
       y="559.86218"
       id="text6658"><tspan
         sodipodi:role="line"
         id="tspan6660" /></text>
    <text
       xml:space="preserve"
       style="font-size:18px;font-style:italic;font-weight:normal;fill:#000000;fill-opacity:1;stroke:none;stroke-width:1px;stroke-linecap:butt;stroke-linejoin:miter;stroke-opacity:1;font-family:Bitstream Vera Sans"
       x="411.78571"
       y="465.57648"
       id="text6662"><tspan
         sodipodi:role="line"
         id="tspan6664" /></text>
    <text
       xml:space="preserve"
       style="font-size:18px;font-style:italic;font-weight:normal;fill:#000000;fill-opacity:1;stroke:none;stroke-width:1px;stroke-linecap:butt;stroke-linejoin:miter;stroke-opacity:1;font-family:Bitstream Vera Sans"
       x="123.57143"
       y="493.79074"
       id="text6218"><tspan
         sodipodi:role="line"
         id="tspan6220"
         x="123.57143"
         y="493.79074" /></text>
    <flowRoot
       xml:space="preserve"
       id="flowRoot9757"
       style="fill:black;stroke:none;stroke-opacity:1;stroke-width:1px;stroke-linejoin:miter;stroke-linecap:butt;fill-opacity:1;font-family:Bitstream Vera Sans;font-style:italic;font-weight:normal;font-size:18"><flowRegion
         id="flowRegion9759"><rect
           id="rect9761"
           width="393.57144"
           height="172.5"
           x="78.571426"
           y="449.50504" /></flowRegion><flowPara
         id="flowPara9763" /></flowRoot>    <path
       style="fill:#55d400;fill-opacity:1;fill-rule:evenodd;stroke:#000000;stroke-width:1px;stroke-linecap:butt;stroke-linejoin:miter;stroke-opacity:1"
       d="M 215,747.36218 L 215,667.36218 L 295,747.36218 L 215,747.36218 z"
       id="path9765"
       sodipodi:nodetypes="cccc" />
    <path
       style="fill:#55d400;fill-opacity:1;fill-rule:evenodd;stroke:#000000;stroke-width:1px;stroke-linecap:butt;stroke-linejoin:miter;stroke-opacity:1"
       d="M 110,747.36218 L 110,667.36218 L 190,747.36218 L 110,747.36218 z"
       id="path4358"
       sodipodi:nodetypes="cccc" />
    <path
       style="fill:#55d400;fill-opacity:1;fill-rule:evenodd;stroke:#000000;stroke-width:1px;stroke-linecap:butt;stroke-linejoin:miter;stroke-opacity:1"
       d="M 320,747.36218 L 320,667.36218 L 400,747.36218 L 320,747.36218 z"
       id="path4372"
       sodipodi:nodetypes="cccc" />
    <path
       style="fill:#55d400;fill-opacity:1;fill-rule:evenodd;stroke:#000000;stroke-width:1px;stroke-linecap:butt;stroke-linejoin:miter;stroke-opacity:1"
       d="M 110,852.36218 L 110,772.36218 L 190,852.36218 L 110,852.36218 z"
       id="path4400"
       sodipodi:nodetypes="cccc" />
    <path
       style="fill:#55d400;fill-opacity:1;fill-rule:evenodd;stroke:#000000;stroke-width:1px;stroke-linecap:butt;stroke-linejoin:miter;stroke-opacity:1"
       d="M 215,852.36218 L 215,772.36218 L 295,852.36218 L 215,852.36218 z"
       id="path4536"
       sodipodi:nodetypes="cccc" />
    <path
       style="fill:#55d400;fill-opacity:1;fill-rule:evenodd;stroke:#000000;stroke-width:1px;stroke-linecap:butt;stroke-linejoin:miter;stroke-opacity:1"
       d="M 320,852.36218 L 320,772.36218 L 400,852.36218 L 320,852.36218 z"
       id="path4600"
       sodipodi:nodetypes="cccc" />
    <path
       sodipodi:type="arc"
       style="opacity:1;fill:#000000;fill-opacity:0.95652173;stroke:none;stroke-width:1;stroke-linejoin:round;stroke-miterlimit:4;stroke-dasharray:1, 3;stroke-dashoffset:0;stroke-opacity:1"
       id="path3270"
       sodipodi:cx="145"
       sodipodi:cy="707.36218"
       sodipodi:rx="4"
       sodipodi:ry="4"
       d="M 149,707.36218 A 4,4 0 1 1 141,707.36218 A 4,4 0 1 1 149,707.36218 z"
       transform="translate(-35,40)" />
    <path
       sodipodi:type="arc"
       style="opacity:1;fill:#000000;fill-opacity:0.95652173;stroke:none;stroke-width:1;stroke-linejoin:round;stroke-miterlimit:4;stroke-dasharray:1, 3;stroke-dashoffset:0;stroke-opacity:1"
       id="path3142"
       sodipodi:cx="145"
       sodipodi:cy="707.36218"
       sodipodi:rx="4"
       sodipodi:ry="4"
       d="M 149,707.36218 A 4,4 0 1 1 141,707.36218 A 4,4 0 1 1 149,707.36218 z"
       transform="translate(-35,-40)" />
    <path
       sodipodi:type="arc"
       style="opacity:1;fill:#000000;fill-opacity:0.95652173;stroke:none;stroke-width:1;stroke-linejoin:round;stroke-miterlimit:4;stroke-dasharray:1, 3;stroke-dashoffset:0;stroke-opacity:1"
       id="path3144"
       sodipodi:cx="145"
       sodipodi:cy="707.36218"
       sodipodi:rx="4"
       sodipodi:ry="4"
       d="M 149,707.36218 A 4,4 0 1 1 141,707.36218 A 4,4 0 1 1 149,707.36218 z"
       transform="translate(45.161215,39.933933)" />
    <path
       sodipodi:type="arc"
       style="opacity:1;fill:#000000;fill-opacity:0.95652173;stroke:none;stroke-width:1;stroke-linejoin:round;stroke-miterlimit:4;stroke-dasharray:1, 3;stroke-dashoffset:0;stroke-opacity:1"
       id="path3146"
       sodipodi:cx="145"
       sodipodi:cy="707.36218"
       sodipodi:rx="4"
       sodipodi:ry="4"
       d="M 149,707.36218 A 4,4 0 1 1 141,707.36218 A 4,4 0 1 1 149,707.36218 z"
       transform="translate(70.162491,39.933933)" />
    <path
       sodipodi:type="arc"
       style="opacity:1;fill:#000000;fill-opacity:0.95652173;stroke:none;stroke-width:1;stroke-linejoin:round;stroke-miterlimit:4;stroke-dasharray:1, 3;stroke-dashoffset:0;stroke-opacity:1"
       id="path3148"
       sodipodi:cx="145"
       sodipodi:cy="707.36218"
       sodipodi:rx="4"
       sodipodi:ry="4"
       d="M 149,707.36218 A 4,4 0 1 1 141,707.36218 A 4,4 0 1 1 149,707.36218 z"
       transform="translate(70,-40)" />
    <path
       sodipodi:type="arc"
       style="opacity:1;fill:#000000;fill-opacity:0.95652173;stroke:none;stroke-width:1;stroke-linejoin:round;stroke-miterlimit:4;stroke-dasharray:1, 3;stroke-dashoffset:0;stroke-opacity:1"
       id="path3150"
       sodipodi:cx="145"
       sodipodi:cy="707.36218"
       sodipodi:rx="4"
       sodipodi:ry="4"
       d="M 149,707.36218 A 4,4 0 1 1 141,707.36218 A 4,4 0 1 1 149,707.36218 z"
       transform="translate(70,0)" />
    <path
       sodipodi:type="arc"
       style="opacity:1;fill:#000000;fill-opacity:0.95652173;stroke:none;stroke-width:1;stroke-linejoin:round;stroke-miterlimit:4;stroke-dasharray:1, 3;stroke-dashoffset:0;stroke-opacity:1"
       id="path3152"
       sodipodi:cx="145"
       sodipodi:cy="707.36218"
       sodipodi:rx="4"
       sodipodi:ry="4"
       d="M 149,707.36218 A 4,4 0 1 1 141,707.36218 A 4,4 0 1 1 149,707.36218 z"
       transform="translate(110,0)" />
    <path
       sodipodi:type="arc"
       style="opacity:1;fill:#000000;fill-opacity:0.95652173;stroke:none;stroke-width:1;stroke-linejoin:round;stroke-miterlimit:4;stroke-dasharray:1, 3;stroke-dashoffset:0;stroke-opacity:1"
       id="path3154"
       sodipodi:cx="145"
       sodipodi:cy="707.36218"
       sodipodi:rx="4"
       sodipodi:ry="4"
       d="M 149,707.36218 A 4,4 0 1 1 141,707.36218 A 4,4 0 1 1 149,707.36218 z"
       transform="translate(110,40)" />
    <path
       sodipodi:type="arc"
       style="opacity:1;fill:#000000;fill-opacity:0.95652173;stroke:none;stroke-width:1;stroke-linejoin:round;stroke-miterlimit:4;stroke-dasharray:1, 3;stroke-dashoffset:0;stroke-opacity:1"
       id="path3156"
       sodipodi:cx="145"
       sodipodi:cy="707.36218"
       sodipodi:rx="4"
       sodipodi:ry="4"
       d="M 149,707.36218 A 4,4 0 1 1 141,707.36218 A 4,4 0 1 1 149,707.36218 z"
       transform="translate(150,40)" />
    <path
       sodipodi:type="arc"
       style="opacity:1;fill:#000000;fill-opacity:0.95652173;stroke:none;stroke-width:1;stroke-linejoin:round;stroke-miterlimit:4;stroke-dasharray:1, 3;stroke-dashoffset:0;stroke-opacity:1"
       id="path3158"
       sodipodi:cx="145"
       sodipodi:cy="707.36218"
       sodipodi:rx="4"
       sodipodi:ry="4"
       d="M 149,707.36218 A 4,4 0 1 1 141,707.36218 A 4,4 0 1 1 149,707.36218 z"
       transform="translate(175,40)" />
    <path
       sodipodi:type="arc"
       style="opacity:1;fill:#000000;fill-opacity:0.95652173;stroke:none;stroke-width:1;stroke-linejoin:round;stroke-miterlimit:4;stroke-dasharray:1, 3;stroke-dashoffset:0;stroke-opacity:1"
       id="path3160"
       sodipodi:cx="145"
       sodipodi:cy="707.36218"
       sodipodi:rx="4"
       sodipodi:ry="4"
       d="M 149,707.36218 A 4,4 0 1 1 141,707.36218 A 4,4 0 1 1 149,707.36218 z"
       transform="translate(174.46074,13.33)" />
    <path
       sodipodi:type="arc"
       style="opacity:1;fill:#000000;fill-opacity:0.95652173;stroke:none;stroke-width:1;stroke-linejoin:round;stroke-miterlimit:4;stroke-dasharray:1, 3;stroke-dashoffset:0;stroke-opacity:1"
       id="path3162"
       sodipodi:cx="145"
       sodipodi:cy="707.36218"
       sodipodi:rx="4"
       sodipodi:ry="4"
       d="M 149,707.36218 A 4,4 0 1 1 141,707.36218 A 4,4 0 1 1 149,707.36218 z"
       transform="translate(175,-13.33)" />
    <path
       sodipodi:type="arc"
       style="opacity:1;fill:#000000;fill-opacity:0.95652173;stroke:none;stroke-width:1;stroke-linejoin:round;stroke-miterlimit:4;stroke-dasharray:1, 3;stroke-dashoffset:0;stroke-opacity:1"
       id="path3164"
       sodipodi:cx="145"
       sodipodi:cy="707.36218"
       sodipodi:rx="4"
       sodipodi:ry="4"
       d="M 149,707.36218 A 4,4 0 1 1 141,707.36218 A 4,4 0 1 1 149,707.36218 z"
       transform="translate(175,-40)" />
    <path
       sodipodi:type="arc"
       style="opacity:1;fill:#000000;fill-opacity:0.95652173;stroke:none;stroke-width:1;stroke-linejoin:round;stroke-miterlimit:4;stroke-dasharray:1, 3;stroke-dashoffset:0;stroke-opacity:1"
       id="path3166"
       sodipodi:cx="145"
       sodipodi:cy="707.36218"
       sodipodi:rx="4"
       sodipodi:ry="4"
       d="M 149,707.36218 A 4,4 0 1 1 141,707.36218 A 4,4 0 1 1 149,707.36218 z"
       transform="translate(201.67,-13.33)" />
    <path
       sodipodi:type="arc"
       style="opacity:1;fill:#000000;fill-opacity:0.95652173;stroke:none;stroke-width:1;stroke-linejoin:round;stroke-miterlimit:4;stroke-dasharray:1, 3;stroke-dashoffset:0;stroke-opacity:1"
       id="path3168"
       sodipodi:cx="145"
       sodipodi:cy="707.36218"
       sodipodi:rx="4"
       sodipodi:ry="4"
       d="M 149,707.36218 A 4,4 0 1 1 141,707.36218 A 4,4 0 1 1 149,707.36218 z"
       transform="translate(228.33,13.33)" />
    <path
       sodipodi:type="arc"
       style="opacity:1;fill:#000000;fill-opacity:0.95652173;stroke:none;stroke-width:1;stroke-linejoin:round;stroke-miterlimit:4;stroke-dasharray:1, 3;stroke-dashoffset:0;stroke-opacity:1"
       id="path3170"
       sodipodi:cx="145"
       sodipodi:cy="707.36218"
       sodipodi:rx="4"
       sodipodi:ry="4"
       d="M 149,707.36218 A 4,4 0 1 1 141,707.36218 A 4,4 0 1 1 149,707.36218 z"
       transform="translate(201.67,13.33)" />
    <path
       sodipodi:type="arc"
       style="opacity:1;fill:#000000;fill-opacity:0.95652173;stroke:none;stroke-width:1;stroke-linejoin:round;stroke-miterlimit:4;stroke-dasharray:1, 3;stroke-dashoffset:0;stroke-opacity:1"
       id="path3172"
       sodipodi:cx="145"
       sodipodi:cy="707.36218"
       sodipodi:rx="4"
       sodipodi:ry="4"
       d="M 149,707.36218 A 4,4 0 1 1 141,707.36218 A 4,4 0 1 1 149,707.36218 z"
       transform="translate(255,40)" />
    <path
       sodipodi:type="arc"
       style="opacity:1;fill:#000000;fill-opacity:0.95652173;stroke:none;stroke-width:1;stroke-linejoin:round;stroke-miterlimit:4;stroke-dasharray:1, 3;stroke-dashoffset:0;stroke-opacity:1"
       id="path3174"
       sodipodi:cx="145"
       sodipodi:cy="707.36218"
       sodipodi:rx="4"
       sodipodi:ry="4"
       d="M 149,707.36218 A 4,4 0 1 1 141,707.36218 A 4,4 0 1 1 149,707.36218 z"
       transform="translate(228.33,40)" />
    <path
       sodipodi:type="arc"
       style="opacity:1;fill:#000000;fill-opacity:0.95652173;stroke:none;stroke-width:1;stroke-linejoin:round;stroke-miterlimit:4;stroke-dasharray:1, 3;stroke-dashoffset:0;stroke-opacity:1"
       id="path3176"
       sodipodi:cx="145"
       sodipodi:cy="707.36218"
       sodipodi:rx="4"
       sodipodi:ry="4"
       d="M 149,707.36218 A 4,4 0 1 1 141,707.36218 A 4,4 0 1 1 149,707.36218 z"
       transform="translate(255,40)" />
    <path
       sodipodi:type="arc"
       style="opacity:1;fill:#000000;fill-opacity:0.95652173;stroke:none;stroke-width:1;stroke-linejoin:round;stroke-miterlimit:4;stroke-dasharray:1, 3;stroke-dashoffset:0;stroke-opacity:1"
       id="path3178"
       sodipodi:cx="145"
       sodipodi:cy="707.36218"
       sodipodi:rx="4"
       sodipodi:ry="4"
       d="M 149,707.36218 A 4,4 0 1 1 141,707.36218 A 4,4 0 1 1 149,707.36218 z"
       transform="translate(-35,65)" />
    <path
       sodipodi:type="arc"
       style="opacity:1;fill:#000000;fill-opacity:0.95652173;stroke:none;stroke-width:1;stroke-linejoin:round;stroke-miterlimit:4;stroke-dasharray:1, 3;stroke-dashoffset:0;stroke-opacity:1"
       id="path3180"
       sodipodi:cx="145"
       sodipodi:cy="707.36218"
       sodipodi:rx="4"
       sodipodi:ry="4"
       d="M 149,707.36218 A 4,4 0 1 1 141,707.36218 A 4,4 0 1 1 149,707.36218 z"
       transform="translate(-35,145)" />
    <path
       sodipodi:type="arc"
       style="opacity:1;fill:#000000;fill-opacity:0.95652173;stroke:none;stroke-width:1;stroke-linejoin:round;stroke-miterlimit:4;stroke-dasharray:1, 3;stroke-dashoffset:0;stroke-opacity:1"
       id="path3182"
       sodipodi:cx="145"
       sodipodi:cy="707.36218"
       sodipodi:rx="4"
       sodipodi:ry="4"
       d="M 149,707.36218 A 4,4 0 1 1 141,707.36218 A 4,4 0 1 1 149,707.36218 z"
       transform="translate(45,145)" />
    <path
       sodipodi:type="arc"
       style="opacity:1;fill:#000000;fill-opacity:0.95652173;stroke:none;stroke-width:1;stroke-linejoin:round;stroke-miterlimit:4;stroke-dasharray:1, 3;stroke-dashoffset:0;stroke-opacity:1"
       id="path3184"
       sodipodi:cx="145"
       sodipodi:cy="707.36218"
       sodipodi:rx="4"
       sodipodi:ry="4"
       d="M 149,707.36218 A 4,4 0 1 1 141,707.36218 A 4,4 0 1 1 149,707.36218 z"
       transform="translate(-35,85)" />
    <path
       sodipodi:type="arc"
       style="opacity:1;fill:#000000;fill-opacity:0.95652173;stroke:none;stroke-width:1;stroke-linejoin:round;stroke-miterlimit:4;stroke-dasharray:1, 3;stroke-dashoffset:0;stroke-opacity:1"
       id="path3186"
       sodipodi:cx="145"
       sodipodi:cy="707.36218"
       sodipodi:rx="4"
       sodipodi:ry="4"
       d="M 149,707.36218 A 4,4 0 1 1 141,707.36218 A 4,4 0 1 1 149,707.36218 z"
       transform="translate(-35,105)" />
    <path
       sodipodi:type="arc"
       style="opacity:1;fill:#000000;fill-opacity:0.95652173;stroke:none;stroke-width:1;stroke-linejoin:round;stroke-miterlimit:4;stroke-dasharray:1, 3;stroke-dashoffset:0;stroke-opacity:1"
       id="path3188"
       sodipodi:cx="145"
       sodipodi:cy="707.36218"
       sodipodi:rx="4"
       sodipodi:ry="4"
       d="M 149,707.36218 A 4,4 0 1 1 141,707.36218 A 4,4 0 1 1 149,707.36218 z"
       transform="translate(-35,125)" />
    <path
       sodipodi:type="arc"
       style="opacity:1;fill:#000000;fill-opacity:0.95652173;stroke:none;stroke-width:1;stroke-linejoin:round;stroke-miterlimit:4;stroke-dasharray:1, 3;stroke-dashoffset:0;stroke-opacity:1"
       id="path3190"
       sodipodi:cx="145"
       sodipodi:cy="707.36218"
       sodipodi:rx="4"
       sodipodi:ry="4"
       d="M 149,707.36218 A 4,4 0 1 1 141,707.36218 A 4,4 0 1 1 149,707.36218 z"
       transform="translate(-15,145)" />
    <path
       sodipodi:type="arc"
       style="opacity:1;fill:#000000;fill-opacity:0.95652173;stroke:none;stroke-width:1;stroke-linejoin:round;stroke-miterlimit:4;stroke-dasharray:1, 3;stroke-dashoffset:0;stroke-opacity:1"
       id="path3192"
       sodipodi:cx="145"
       sodipodi:cy="707.36218"
       sodipodi:rx="4"
       sodipodi:ry="4"
       d="M 149,707.36218 A 4,4 0 1 1 141,707.36218 A 4,4 0 1 1 149,707.36218 z"
       transform="translate(-15,125)" />
    <path
       sodipodi:type="arc"
       style="opacity:1;fill:#000000;fill-opacity:0.95652173;stroke:none;stroke-width:1;stroke-linejoin:round;stroke-miterlimit:4;stroke-dasharray:1, 3;stroke-dashoffset:0;stroke-opacity:1"
       id="path3194"
       sodipodi:cx="145"
       sodipodi:cy="707.36218"
       sodipodi:rx="4"
       sodipodi:ry="4"
       d="M 149,707.36218 A 4,4 0 1 1 141,707.36218 A 4,4 0 1 1 149,707.36218 z"
       transform="translate(-15,105)" />
    <path
       sodipodi:type="arc"
       style="opacity:1;fill:#000000;fill-opacity:0.95652173;stroke:none;stroke-width:1;stroke-linejoin:round;stroke-miterlimit:4;stroke-dasharray:1, 3;stroke-dashoffset:0;stroke-opacity:1"
       id="path3196"
       sodipodi:cx="145"
       sodipodi:cy="707.36218"
       sodipodi:rx="4"
       sodipodi:ry="4"
       d="M 149,707.36218 A 4,4 0 1 1 141,707.36218 A 4,4 0 1 1 149,707.36218 z"
       transform="translate(-15,85)" />
    <path
       sodipodi:type="arc"
       style="opacity:1;fill:#000000;fill-opacity:0.95652173;stroke:none;stroke-width:1;stroke-linejoin:round;stroke-miterlimit:4;stroke-dasharray:1, 3;stroke-dashoffset:0;stroke-opacity:1"
       id="path3198"
       sodipodi:cx="145"
       sodipodi:cy="707.36218"
       sodipodi:rx="4"
       sodipodi:ry="4"
       d="M 149,707.36218 A 4,4 0 1 1 141,707.36218 A 4,4 0 1 1 149,707.36218 z"
       transform="translate(5,145)" />
    <path
       sodipodi:type="arc"
       style="opacity:1;fill:#000000;fill-opacity:0.95652173;stroke:none;stroke-width:1;stroke-linejoin:round;stroke-miterlimit:4;stroke-dasharray:1, 3;stroke-dashoffset:0;stroke-opacity:1"
       id="path3200"
       sodipodi:cx="145"
       sodipodi:cy="707.36218"
       sodipodi:rx="4"
       sodipodi:ry="4"
       d="M 149,707.36218 A 4,4 0 1 1 141,707.36218 A 4,4 0 1 1 149,707.36218 z"
       transform="translate(5,125)" />
    <path
       sodipodi:type="arc"
       style="opacity:1;fill:#000000;fill-opacity:0.95652173;stroke:none;stroke-width:1;stroke-linejoin:round;stroke-miterlimit:4;stroke-dasharray:1, 3;stroke-dashoffset:0;stroke-opacity:1"
       id="path3202"
       sodipodi:cx="145"
       sodipodi:cy="707.36218"
       sodipodi:rx="4"
       sodipodi:ry="4"
       d="M 149,707.36218 A 4,4 0 1 1 141,707.36218 A 4,4 0 1 1 149,707.36218 z"
       transform="translate(5,105)" />
    <path
       sodipodi:type="arc"
       style="opacity:1;fill:#000000;fill-opacity:0.95652173;stroke:none;stroke-width:1;stroke-linejoin:round;stroke-miterlimit:4;stroke-dasharray:1, 3;stroke-dashoffset:0;stroke-opacity:1"
       id="path3204"
       sodipodi:cx="145"
       sodipodi:cy="707.36218"
       sodipodi:rx="4"
       sodipodi:ry="4"
       d="M 149,707.36218 A 4,4 0 1 1 141,707.36218 A 4,4 0 1 1 149,707.36218 z"
       transform="translate(25,145)" />
    <path
       sodipodi:type="arc"
       style="opacity:1;fill:#000000;fill-opacity:0.95652173;stroke:none;stroke-width:1;stroke-linejoin:round;stroke-miterlimit:4;stroke-dasharray:1, 3;stroke-dashoffset:0;stroke-opacity:1"
       id="path3206"
       sodipodi:cx="145"
       sodipodi:cy="707.36218"
       sodipodi:rx="4"
       sodipodi:ry="4"
       d="M 149,707.36218 A 4,4 0 1 1 141,707.36218 A 4,4 0 1 1 149,707.36218 z"
       transform="translate(25,125)" />
    <path
       sodipodi:type="arc"
       style="opacity:1;fill:#000000;fill-opacity:0.95652173;stroke:none;stroke-width:1;stroke-linejoin:round;stroke-miterlimit:4;stroke-dasharray:1, 3;stroke-dashoffset:0;stroke-opacity:1"
       id="path3208"
       sodipodi:cx="145"
       sodipodi:cy="707.36218"
       sodipodi:rx="4"
       sodipodi:ry="4"
       d="M 149,707.36218 A 4,4 0 1 1 141,707.36218 A 4,4 0 1 1 149,707.36218 z"
       transform="translate(70,145)" />
    <path
       sodipodi:type="arc"
       style="opacity:1;fill:#000000;fill-opacity:0.95652173;stroke:none;stroke-width:1;stroke-linejoin:round;stroke-miterlimit:4;stroke-dasharray:1, 3;stroke-dashoffset:0;stroke-opacity:1"
       id="path3210"
       sodipodi:cx="145"
       sodipodi:cy="707.36218"
       sodipodi:rx="4"
       sodipodi:ry="4"
       d="M 149,707.36218 A 4,4 0 1 1 141,707.36218 A 4,4 0 1 1 149,707.36218 z"
       transform="translate(70,129)" />
    <path
       sodipodi:type="arc"
       style="opacity:1;fill:#000000;fill-opacity:0.95652173;stroke:none;stroke-width:1;stroke-linejoin:round;stroke-miterlimit:4;stroke-dasharray:1, 3;stroke-dashoffset:0;stroke-opacity:1"
       id="path3212"
       sodipodi:cx="145"
       sodipodi:cy="707.36218"
       sodipodi:rx="4"
       sodipodi:ry="4"
       d="M 149,707.36218 A 4,4 0 1 1 141,707.36218 A 4,4 0 1 1 149,707.36218 z"
       transform="translate(70,113)" />
    <path
       sodipodi:type="arc"
       style="opacity:1;fill:#000000;fill-opacity:0.95652173;stroke:none;stroke-width:1;stroke-linejoin:round;stroke-miterlimit:4;stroke-dasharray:1, 3;stroke-dashoffset:0;stroke-opacity:1"
       id="path3214"
       sodipodi:cx="145"
       sodipodi:cy="707.36218"
       sodipodi:rx="4"
       sodipodi:ry="4"
       d="M 149,707.36218 A 4,4 0 1 1 141,707.36218 A 4,4 0 1 1 149,707.36218 z"
       transform="translate(70,97)" />
    <path
       sodipodi:type="arc"
       style="opacity:1;fill:#000000;fill-opacity:0.95652173;stroke:none;stroke-width:1;stroke-linejoin:round;stroke-miterlimit:4;stroke-dasharray:1, 3;stroke-dashoffset:0;stroke-opacity:1"
       id="path3216"
       sodipodi:cx="145"
       sodipodi:cy="707.36218"
       sodipodi:rx="4"
       sodipodi:ry="4"
       d="M 149,707.36218 A 4,4 0 1 1 141,707.36218 A 4,4 0 1 1 149,707.36218 z"
       transform="translate(70,81)" />
    <path
       sodipodi:type="arc"
       style="opacity:1;fill:#000000;fill-opacity:0.95652173;stroke:none;stroke-width:1;stroke-linejoin:round;stroke-miterlimit:4;stroke-dasharray:1, 3;stroke-dashoffset:0;stroke-opacity:1"
       id="path3218"
       sodipodi:cx="145"
       sodipodi:cy="707.36218"
       sodipodi:rx="4"
       sodipodi:ry="4"
       d="M 149,707.36218 A 4,4 0 1 1 141,707.36218 A 4,4 0 1 1 149,707.36218 z"
       transform="translate(70,65.692823)" />
    <path
       sodipodi:type="arc"
       style="opacity:1;fill:#000000;fill-opacity:0.95652173;stroke:none;stroke-width:1;stroke-linejoin:round;stroke-miterlimit:4;stroke-dasharray:1, 3;stroke-dashoffset:0;stroke-opacity:1"
       id="path3220"
       sodipodi:cx="145"
       sodipodi:cy="707.36218"
       sodipodi:rx="4"
       sodipodi:ry="4"
       d="M 149,707.36218 A 4,4 0 1 1 141,707.36218 A 4,4 0 1 1 149,707.36218 z"
       transform="translate(147.6917,144.9898)" />
    <path
       sodipodi:type="arc"
       style="opacity:1;fill:#000000;fill-opacity:0.95652173;stroke:none;stroke-width:1;stroke-linejoin:round;stroke-miterlimit:4;stroke-dasharray:1, 3;stroke-dashoffset:0;stroke-opacity:1"
       id="path3222"
       sodipodi:cx="145"
       sodipodi:cy="707.36218"
       sodipodi:rx="4"
       sodipodi:ry="4"
       d="M 149,707.36218 A 4,4 0 1 1 141,707.36218 A 4,4 0 1 1 149,707.36218 z"
       transform="translate(86,145)" />
    <path
       sodipodi:type="arc"
       style="opacity:1;fill:#000000;fill-opacity:0.95652173;stroke:none;stroke-width:1;stroke-linejoin:round;stroke-miterlimit:4;stroke-dasharray:1, 3;stroke-dashoffset:0;stroke-opacity:1"
       id="path3224"
       sodipodi:cx="145"
       sodipodi:cy="707.36218"
       sodipodi:rx="4"
       sodipodi:ry="4"
       d="M 149,707.36218 A 4,4 0 1 1 141,707.36218 A 4,4 0 1 1 149,707.36218 z"
       transform="translate(86,129)" />
    <path
       sodipodi:type="arc"
       style="opacity:1;fill:#000000;fill-opacity:0.95652173;stroke:none;stroke-width:1;stroke-linejoin:round;stroke-miterlimit:4;stroke-dasharray:1, 3;stroke-dashoffset:0;stroke-opacity:1"
       id="path3226"
       sodipodi:cx="145"
       sodipodi:cy="707.36218"
       sodipodi:rx="4"
       sodipodi:ry="4"
       d="M 149,707.36218 A 4,4 0 1 1 141,707.36218 A 4,4 0 1 1 149,707.36218 z"
       transform="translate(86,113)" />
    <path
       sodipodi:type="arc"
       style="opacity:1;fill:#000000;fill-opacity:0.95652173;stroke:none;stroke-width:1;stroke-linejoin:round;stroke-miterlimit:4;stroke-dasharray:1, 3;stroke-dashoffset:0;stroke-opacity:1"
       id="path3228"
       sodipodi:cx="145"
       sodipodi:cy="707.36218"
       sodipodi:rx="4"
       sodipodi:ry="4"
       d="M 149,707.36218 A 4,4 0 1 1 141,707.36218 A 4,4 0 1 1 149,707.36218 z"
       transform="translate(86,97)" />
    <path
       sodipodi:type="arc"
       style="opacity:1;fill:#000000;fill-opacity:0.95652173;stroke:none;stroke-width:1;stroke-linejoin:round;stroke-miterlimit:4;stroke-dasharray:1, 3;stroke-dashoffset:0;stroke-opacity:1"
       id="path3230"
       sodipodi:cx="145"
       sodipodi:cy="707.36218"
       sodipodi:rx="4"
       sodipodi:ry="4"
       d="M 149,707.36218 A 4,4 0 1 1 141,707.36218 A 4,4 0 1 1 149,707.36218 z"
       transform="translate(86,81)" />
    <path
       sodipodi:type="arc"
       style="opacity:1;fill:#000000;fill-opacity:0.95652173;stroke:none;stroke-width:1;stroke-linejoin:round;stroke-miterlimit:4;stroke-dasharray:1, 3;stroke-dashoffset:0;stroke-opacity:1"
       id="path3232"
       sodipodi:cx="145"
       sodipodi:cy="707.36218"
       sodipodi:rx="4"
       sodipodi:ry="4"
       d="M 149,707.36218 A 4,4 0 1 1 141,707.36218 A 4,4 0 1 1 149,707.36218 z"
       transform="translate(102,97)" />
    <path
       sodipodi:type="arc"
       style="opacity:1;fill:#000000;fill-opacity:0.95652173;stroke:none;stroke-width:1;stroke-linejoin:round;stroke-miterlimit:4;stroke-dasharray:1, 3;stroke-dashoffset:0;stroke-opacity:1"
       id="path3234"
       sodipodi:cx="145"
       sodipodi:cy="707.36218"
       sodipodi:rx="4"
       sodipodi:ry="4"
       d="M 149,707.36218 A 4,4 0 1 1 141,707.36218 A 4,4 0 1 1 149,707.36218 z"
       transform="translate(102,113)" />
    <path
       sodipodi:type="arc"
       style="opacity:1;fill:#000000;fill-opacity:0.95652173;stroke:none;stroke-width:1;stroke-linejoin:round;stroke-miterlimit:4;stroke-dasharray:1, 3;stroke-dashoffset:0;stroke-opacity:1"
       id="path3236"
       sodipodi:cx="145"
       sodipodi:cy="707.36218"
       sodipodi:rx="4"
       sodipodi:ry="4"
       d="M 149,707.36218 A 4,4 0 1 1 141,707.36218 A 4,4 0 1 1 149,707.36218 z"
       transform="translate(102,129)" />
    <path
       sodipodi:type="arc"
       style="opacity:1;fill:#000000;fill-opacity:0.95652173;stroke:none;stroke-width:1;stroke-linejoin:round;stroke-miterlimit:4;stroke-dasharray:1, 3;stroke-dashoffset:0;stroke-opacity:1"
       id="path3238"
       sodipodi:cx="145"
       sodipodi:cy="707.36218"
       sodipodi:rx="4"
       sodipodi:ry="4"
       d="M 149,707.36218 A 4,4 0 1 1 141,707.36218 A 4,4 0 1 1 149,707.36218 z"
       transform="translate(102,145)" />
    <path
       sodipodi:type="arc"
       style="opacity:1;fill:#000000;fill-opacity:0.95652173;stroke:none;stroke-width:1;stroke-linejoin:round;stroke-miterlimit:4;stroke-dasharray:1, 3;stroke-dashoffset:0;stroke-opacity:1"
       id="path3240"
       sodipodi:cx="145"
       sodipodi:cy="707.36218"
       sodipodi:rx="4"
       sodipodi:ry="4"
       d="M 149,707.36218 A 4,4 0 1 1 141,707.36218 A 4,4 0 1 1 149,707.36218 z"
       transform="translate(118,145)" />
    <path
       sodipodi:type="arc"
       style="opacity:1;fill:#000000;fill-opacity:0.95652173;stroke:none;stroke-width:1;stroke-linejoin:round;stroke-miterlimit:4;stroke-dasharray:1, 3;stroke-dashoffset:0;stroke-opacity:1"
       id="path3242"
       sodipodi:cx="145"
       sodipodi:cy="707.36218"
       sodipodi:rx="4"
       sodipodi:ry="4"
       d="M 149,707.36218 A 4,4 0 1 1 141,707.36218 A 4,4 0 1 1 149,707.36218 z"
       transform="translate(118,129)" />
    <path
       sodipodi:type="arc"
       style="opacity:1;fill:#000000;fill-opacity:0.95652173;stroke:none;stroke-width:1;stroke-linejoin:round;stroke-miterlimit:4;stroke-dasharray:1, 3;stroke-dashoffset:0;stroke-opacity:1"
       id="path3244"
       sodipodi:cx="145"
       sodipodi:cy="707.36218"
       sodipodi:rx="4"
       sodipodi:ry="4"
       d="M 149,707.36218 A 4,4 0 1 1 141,707.36218 A 4,4 0 1 1 149,707.36218 z"
       transform="translate(118,113)" />
    <path
       sodipodi:type="arc"
       style="opacity:1;fill:#000000;fill-opacity:0.95652173;stroke:none;stroke-width:1;stroke-linejoin:round;stroke-miterlimit:4;stroke-dasharray:1, 3;stroke-dashoffset:0;stroke-opacity:1"
       id="path3246"
       sodipodi:cx="145"
       sodipodi:cy="707.36218"
       sodipodi:rx="4"
       sodipodi:ry="4"
       d="M 149,707.36218 A 4,4 0 1 1 141,707.36218 A 4,4 0 1 1 149,707.36218 z"
       transform="translate(134,129)" />
    <path
       sodipodi:type="arc"
       style="opacity:1;fill:#000000;fill-opacity:0.95652173;stroke:none;stroke-width:1;stroke-linejoin:round;stroke-miterlimit:4;stroke-dasharray:1, 3;stroke-dashoffset:0;stroke-opacity:1"
       id="path3248"
       sodipodi:cx="145"
       sodipodi:cy="707.36218"
       sodipodi:rx="4"
       sodipodi:ry="4"
       d="M 149,707.36218 A 4,4 0 1 1 141,707.36218 A 4,4 0 1 1 149,707.36218 z"
       transform="translate(134,145)" />
    <path
       sodipodi:type="arc"
       style="opacity:1;fill:#000000;fill-opacity:0.95652173;stroke:none;stroke-width:1;stroke-linejoin:round;stroke-miterlimit:4;stroke-dasharray:1, 3;stroke-dashoffset:0;stroke-opacity:1"
       id="path3250"
       sodipodi:cx="145"
       sodipodi:cy="707.36218"
       sodipodi:rx="4"
       sodipodi:ry="4"
       d="M 149,707.36218 A 4,4 0 1 1 141,707.36218 A 4,4 0 1 1 149,707.36218 z"
       transform="translate(175,145)" />
    <path
       sodipodi:type="arc"
       style="opacity:1;fill:#000000;fill-opacity:0.95652173;stroke:none;stroke-width:1;stroke-linejoin:round;stroke-miterlimit:4;stroke-dasharray:1, 3;stroke-dashoffset:0;stroke-opacity:1"
       id="path3252"
       sodipodi:cx="145"
       sodipodi:cy="707.36218"
       sodipodi:rx="4"
       sodipodi:ry="4"
       d="M 149,707.36218 A 4,4 0 1 1 141,707.36218 A 4,4 0 1 1 149,707.36218 z"
       transform="translate(175,131.67)" />
    <path
       sodipodi:type="arc"
       style="opacity:1;fill:#000000;fill-opacity:0.95652173;stroke:none;stroke-width:1;stroke-linejoin:round;stroke-miterlimit:4;stroke-dasharray:1, 3;stroke-dashoffset:0;stroke-opacity:1"
       id="path3254"
       sodipodi:cx="145"
       sodipodi:cy="707.36218"
       sodipodi:rx="4"
       sodipodi:ry="4"
       d="M 149,707.36218 A 4,4 0 1 1 141,707.36218 A 4,4 0 1 1 149,707.36218 z"
       transform="translate(175,118.33)" />
    <path
       sodipodi:type="arc"
       style="opacity:1;fill:#000000;fill-opacity:0.95652173;stroke:none;stroke-width:1;stroke-linejoin:round;stroke-miterlimit:4;stroke-dasharray:1, 3;stroke-dashoffset:0;stroke-opacity:1"
       id="path3256"
       sodipodi:cx="145"
       sodipodi:cy="707.36218"
       sodipodi:rx="4"
       sodipodi:ry="4"
       d="M 149,707.36218 A 4,4 0 1 1 141,707.36218 A 4,4 0 1 1 149,707.36218 z"
       transform="translate(175,105)" />
    <path
       sodipodi:type="arc"
       style="opacity:1;fill:#000000;fill-opacity:0.95652173;stroke:none;stroke-width:1;stroke-linejoin:round;stroke-miterlimit:4;stroke-dasharray:1, 3;stroke-dashoffset:0;stroke-opacity:1"
       id="path3258"
       sodipodi:cx="145"
       sodipodi:cy="707.36218"
       sodipodi:rx="4"
       sodipodi:ry="4"
       d="M 149,707.36218 A 4,4 0 1 1 141,707.36218 A 4,4 0 1 1 149,707.36218 z"
       transform="translate(175,91.67)" />
    <path
       sodipodi:type="arc"
       style="opacity:1;fill:#000000;fill-opacity:0.95652173;stroke:none;stroke-width:1;stroke-linejoin:round;stroke-miterlimit:4;stroke-dasharray:1, 3;stroke-dashoffset:0;stroke-opacity:1"
       id="path3260"
       sodipodi:cx="145"
       sodipodi:cy="707.36218"
       sodipodi:rx="4"
       sodipodi:ry="4"
       d="M 149,707.36218 A 4,4 0 1 1 141,707.36218 A 4,4 0 1 1 149,707.36218 z"
       transform="translate(175,78.33)" />
    <path
       sodipodi:type="arc"
       style="opacity:1;fill:#000000;fill-opacity:0.95652173;stroke:none;stroke-width:1;stroke-linejoin:round;stroke-miterlimit:4;stroke-dasharray:1, 3;stroke-dashoffset:0;stroke-opacity:1"
       id="path3262"
       sodipodi:cx="145"
       sodipodi:cy="707.36218"
       sodipodi:rx="4"
       sodipodi:ry="4"
       d="M 149,707.36218 A 4,4 0 1 1 141,707.36218 A 4,4 0 1 1 149,707.36218 z"
       transform="translate(175,65)" />
    <path
       sodipodi:type="arc"
       style="opacity:1;fill:#000000;fill-opacity:0.95652173;stroke:none;stroke-width:1;stroke-linejoin:round;stroke-miterlimit:4;stroke-dasharray:1, 3;stroke-dashoffset:0;stroke-opacity:1"
       id="path3264"
       sodipodi:cx="145"
       sodipodi:cy="707.36218"
       sodipodi:rx="4"
       sodipodi:ry="4"
       d="M 149,707.36218 A 4,4 0 1 1 141,707.36218 A 4,4 0 1 1 149,707.36218 z"
       transform="translate(188.33,78.33)" />
    <path
       sodipodi:type="arc"
       style="opacity:1;fill:#000000;fill-opacity:0.95652173;stroke:none;stroke-width:1;stroke-linejoin:round;stroke-miterlimit:4;stroke-dasharray:1, 3;stroke-dashoffset:0;stroke-opacity:1"
       id="path3266"
       sodipodi:cx="145"
       sodipodi:cy="707.36218"
       sodipodi:rx="4"
       sodipodi:ry="4"
       d="M 149,707.36218 A 4,4 0 1 1 141,707.36218 A 4,4 0 1 1 149,707.36218 z"
       transform="translate(188.33,91.67)" />
    <path
       sodipodi:type="arc"
       style="opacity:1;fill:#000000;fill-opacity:0.95652173;stroke:none;stroke-width:1;stroke-linejoin:round;stroke-miterlimit:4;stroke-dasharray:1, 3;stroke-dashoffset:0;stroke-opacity:1"
       id="path3268"
       sodipodi:cx="145"
       sodipodi:cy="707.36218"
       sodipodi:rx="4"
       sodipodi:ry="4"
       d="M 149,707.36218 A 4,4 0 1 1 141,707.36218 A 4,4 0 1 1 149,707.36218 z"
       transform="translate(188.33,105)" />
    <path
       sodipodi:type="arc"
       style="opacity:1;fill:#000000;fill-opacity:0.95652173;stroke:none;stroke-width:1;stroke-linejoin:round;stroke-miterlimit:4;stroke-dasharray:1, 3;stroke-dashoffset:0;stroke-opacity:1"
       id="path3271"
       sodipodi:cx="145"
       sodipodi:cy="707.36218"
       sodipodi:rx="4"
       sodipodi:ry="4"
       d="M 149,707.36218 A 4,4 0 1 1 141,707.36218 A 4,4 0 1 1 149,707.36218 z"
       transform="translate(188.33,118.33)" />
    <path
       sodipodi:type="arc"
       style="opacity:1;fill:#000000;fill-opacity:0.95652173;stroke:none;stroke-width:1;stroke-linejoin:round;stroke-miterlimit:4;stroke-dasharray:1, 3;stroke-dashoffset:0;stroke-opacity:1"
       id="path3273"
       sodipodi:cx="145"
       sodipodi:cy="707.36218"
       sodipodi:rx="4"
       sodipodi:ry="4"
       d="M 149,707.36218 A 4,4 0 1 1 141,707.36218 A 4,4 0 1 1 149,707.36218 z"
       transform="translate(188.33,131.67)" />
    <path
       sodipodi:type="arc"
       style="opacity:1;fill:#000000;fill-opacity:0.95652173;stroke:none;stroke-width:1;stroke-linejoin:round;stroke-miterlimit:4;stroke-dasharray:1, 3;stroke-dashoffset:0;stroke-opacity:1"
       id="path3275"
       sodipodi:cx="145"
       sodipodi:cy="707.36218"
       sodipodi:rx="4"
       sodipodi:ry="4"
       d="M 149,707.36218 A 4,4 0 1 1 141,707.36218 A 4,4 0 1 1 149,707.36218 z"
       transform="translate(188.33,145)" />
    <path
       sodipodi:type="arc"
       style="opacity:1;fill:#000000;fill-opacity:0.95652173;stroke:none;stroke-width:1;stroke-linejoin:round;stroke-miterlimit:4;stroke-dasharray:1, 3;stroke-dashoffset:0;stroke-opacity:1"
       id="path3277"
       sodipodi:cx="145"
       sodipodi:cy="707.36218"
       sodipodi:rx="4"
       sodipodi:ry="4"
       d="M 149,707.36218 A 4,4 0 1 1 141,707.36218 A 4,4 0 1 1 149,707.36218 z"
       transform="translate(201.67,145)" />
    <path
       sodipodi:type="arc"
       style="opacity:1;fill:#000000;fill-opacity:0.95652173;stroke:none;stroke-width:1;stroke-linejoin:round;stroke-miterlimit:4;stroke-dasharray:1, 3;stroke-dashoffset:0;stroke-opacity:1"
       id="path3279"
       sodipodi:cx="145"
       sodipodi:cy="707.36218"
       sodipodi:rx="4"
       sodipodi:ry="4"
       d="M 149,707.36218 A 4,4 0 1 1 141,707.36218 A 4,4 0 1 1 149,707.36218 z"
       transform="translate(201.67,131.67)" />
    <path
       sodipodi:type="arc"
       style="opacity:1;fill:#000000;fill-opacity:0.95652173;stroke:none;stroke-width:1;stroke-linejoin:round;stroke-miterlimit:4;stroke-dasharray:1, 3;stroke-dashoffset:0;stroke-opacity:1"
       id="path3281"
       sodipodi:cx="145"
       sodipodi:cy="707.36218"
       sodipodi:rx="4"
       sodipodi:ry="4"
       d="M 149,707.36218 A 4,4 0 1 1 141,707.36218 A 4,4 0 1 1 149,707.36218 z"
       transform="translate(201.67,118.33)" />
    <path
       sodipodi:type="arc"
       style="opacity:1;fill:#000000;fill-opacity:0.95652173;stroke:none;stroke-width:1;stroke-linejoin:round;stroke-miterlimit:4;stroke-dasharray:1, 3;stroke-dashoffset:0;stroke-opacity:1"
       id="path3283"
       sodipodi:cx="145"
       sodipodi:cy="707.36218"
       sodipodi:rx="4"
       sodipodi:ry="4"
       d="M 149,707.36218 A 4,4 0 1 1 141,707.36218 A 4,4 0 1 1 149,707.36218 z"
       transform="translate(201.67,105)" />
    <path
       sodipodi:type="arc"
       style="opacity:1;fill:#000000;fill-opacity:0.95652173;stroke:none;stroke-width:1;stroke-linejoin:round;stroke-miterlimit:4;stroke-dasharray:1, 3;stroke-dashoffset:0;stroke-opacity:1"
       id="path3285"
       sodipodi:cx="145"
       sodipodi:cy="707.36218"
       sodipodi:rx="4"
       sodipodi:ry="4"
       d="M 149,707.36218 A 4,4 0 1 1 141,707.36218 A 4,4 0 1 1 149,707.36218 z"
       transform="translate(201.67,91.67)" />
    <path
       sodipodi:type="arc"
       style="opacity:1;fill:#000000;fill-opacity:0.95652173;stroke:none;stroke-width:1;stroke-linejoin:round;stroke-miterlimit:4;stroke-dasharray:1, 3;stroke-dashoffset:0;stroke-opacity:1"
       id="path3287"
       sodipodi:cx="145"
       sodipodi:cy="707.36218"
       sodipodi:rx="4"
       sodipodi:ry="4"
       d="M 149,707.36218 A 4,4 0 1 1 141,707.36218 A 4,4 0 1 1 149,707.36218 z"
       transform="translate(215,105)" />
    <path
       sodipodi:type="arc"
       style="opacity:1;fill:#000000;fill-opacity:0.95652173;stroke:none;stroke-width:1;stroke-linejoin:round;stroke-miterlimit:4;stroke-dasharray:1, 3;stroke-dashoffset:0;stroke-opacity:1"
       id="path3289"
       sodipodi:cx="145"
       sodipodi:cy="707.36218"
       sodipodi:rx="4"
       sodipodi:ry="4"
       d="M 149,707.36218 A 4,4 0 1 1 141,707.36218 A 4,4 0 1 1 149,707.36218 z"
       transform="translate(215,118.33)" />
    <path
       sodipodi:type="arc"
       style="opacity:1;fill:#000000;fill-opacity:0.95652173;stroke:none;stroke-width:1;stroke-linejoin:round;stroke-miterlimit:4;stroke-dasharray:1, 3;stroke-dashoffset:0;stroke-opacity:1"
       id="path3291"
       sodipodi:cx="145"
       sodipodi:cy="707.36218"
       sodipodi:rx="4"
       sodipodi:ry="4"
       d="M 149,707.36218 A 4,4 0 1 1 141,707.36218 A 4,4 0 1 1 149,707.36218 z"
       transform="translate(215,131.67)" />
    <path
       sodipodi:type="arc"
       style="opacity:1;fill:#000000;fill-opacity:0.95652173;stroke:none;stroke-width:1;stroke-linejoin:round;stroke-miterlimit:4;stroke-dasharray:1, 3;stroke-dashoffset:0;stroke-opacity:1"
       id="path3293"
       sodipodi:cx="145"
       sodipodi:cy="707.36218"
       sodipodi:rx="4"
       sodipodi:ry="4"
       d="M 149,707.36218 A 4,4 0 1 1 141,707.36218 A 4,4 0 1 1 149,707.36218 z"
       transform="translate(215,145)" />
    <path
       sodipodi:type="arc"
       style="opacity:1;fill:#000000;fill-opacity:0.95652173;stroke:none;stroke-width:1;stroke-linejoin:round;stroke-miterlimit:4;stroke-dasharray:1, 3;stroke-dashoffset:0;stroke-opacity:1"
       id="path3295"
       sodipodi:cx="145"
       sodipodi:cy="707.36218"
       sodipodi:rx="4"
       sodipodi:ry="4"
       d="M 149,707.36218 A 4,4 0 1 1 141,707.36218 A 4,4 0 1 1 149,707.36218 z"
       transform="translate(228.33,145)" />
    <path
       sodipodi:type="arc"
       style="opacity:1;fill:#000000;fill-opacity:0.95652173;stroke:none;stroke-width:1;stroke-linejoin:round;stroke-miterlimit:4;stroke-dasharray:1, 3;stroke-dashoffset:0;stroke-opacity:1"
       id="path3297"
       sodipodi:cx="145"
       sodipodi:cy="707.36218"
       sodipodi:rx="4"
       sodipodi:ry="4"
       d="M 149,707.36218 A 4,4 0 1 1 141,707.36218 A 4,4 0 1 1 149,707.36218 z"
       transform="translate(228.33,131.67)" />
    <path
       sodipodi:type="arc"
       style="opacity:1;fill:#000000;fill-opacity:0.95652173;stroke:none;stroke-width:1;stroke-linejoin:round;stroke-miterlimit:4;stroke-dasharray:1, 3;stroke-dashoffset:0;stroke-opacity:1"
       id="path3299"
       sodipodi:cx="145"
       sodipodi:cy="707.36218"
       sodipodi:rx="4"
       sodipodi:ry="4"
       d="M 149,707.36218 A 4,4 0 1 1 141,707.36218 A 4,4 0 1 1 149,707.36218 z"
       transform="translate(228.33,118.33)" />
    <path
       sodipodi:type="arc"
       style="opacity:1;fill:#000000;fill-opacity:0.95652173;stroke:none;stroke-width:1;stroke-linejoin:round;stroke-miterlimit:4;stroke-dasharray:1, 3;stroke-dashoffset:0;stroke-opacity:1"
       id="path3301"
       sodipodi:cx="145"
       sodipodi:cy="707.36218"
       sodipodi:rx="4"
       sodipodi:ry="4"
       d="M 149,707.36218 A 4,4 0 1 1 141,707.36218 A 4,4 0 1 1 149,707.36218 z"
       transform="translate(241.67,131.67)" />
    <path
       sodipodi:type="arc"
       style="opacity:1;fill:#000000;fill-opacity:0.95652173;stroke:none;stroke-width:1;stroke-linejoin:round;stroke-miterlimit:4;stroke-dasharray:1, 3;stroke-dashoffset:0;stroke-opacity:1"
       id="path3303"
       sodipodi:cx="145"
       sodipodi:cy="707.36218"
       sodipodi:rx="4"
       sodipodi:ry="4"
       d="M 149,707.36218 A 4,4 0 1 1 141,707.36218 A 4,4 0 1 1 149,707.36218 z"
       transform="translate(241.67,145)" />
    <path
       sodipodi:type="arc"
       style="opacity:1;fill:#000000;fill-opacity:0.95652173;stroke:none;stroke-width:1;stroke-linejoin:round;stroke-miterlimit:4;stroke-dasharray:1, 3;stroke-dashoffset:0;stroke-opacity:1"
       id="path3305"
       sodipodi:cx="145"
       sodipodi:cy="707.36218"
       sodipodi:rx="4"
       sodipodi:ry="4"
       d="M 149,707.36218 A 4,4 0 1 1 141,707.36218 A 4,4 0 1 1 149,707.36218 z"
       transform="translate(255,145.24234)" />
    <path
       sodipodi:type="arc"
       style="opacity:1;fill:#000000;fill-opacity:0.95652173;stroke:none;stroke-width:1;stroke-linejoin:round;stroke-miterlimit:4;stroke-dasharray:1, 3;stroke-dashoffset:0;stroke-opacity:1"
       id="path3307"
       sodipodi:cx="145"
       sodipodi:cy="707.36218"
       sodipodi:rx="4"
       sodipodi:ry="4"
       d="M 149,707.36218 A 4,4 0 1 1 141,707.36218 A 4,4 0 1 1 149,707.36218 z"
       transform="translate(201.67,40)" />
    <path
       sodipodi:type="arc"
       style="fill:#55d400;fill-opacity:1;stroke-width:2;stroke-miterlimit:4;stroke-dasharray:none"
       id="path3309"
       sodipodi:cx="109.5"
       sodipodi:cy="827.36218"
       sodipodi:rx="1.5"
       sodipodi:ry="0"
       d="M 110.9854,827.36218 A 1.5,0 0 1 1 111,827.36218 L 109.5,827.36218 z"
       sodipodi:start="0.13962634"
       sodipodi:end="6.2831853" />
  </g>
</svg>
